<svg width="258" height="205" viewBox="0 0 258 205" fill="none" xmlns="http://www.w3.org/2000/svg">
<path d="M258 203.962C258 204.031 200.24 204.09 129.012 204.09C57.7853 204.09 0 204.031 0 203.962C0 203.893 57.752 203.834 129.012 203.834C200.273 203.834 258 203.898 258 203.962Z" fill="#242427"/>
<path d="M190.521 10.3162L187.989 11.2218L186.903 7.90948C184.907 1.80161 178.545 -1.44181 172.7 0.620397C166.854 2.6826 163.742 9.38108 165.738 15.4889L166.825 18.8013L164.283 19.7118C163.314 20.0881 162.527 20.8239 162.085 21.7662C161.644 22.7085 161.582 23.7847 161.913 24.7713L168.958 46.3236C169.105 46.812 169.347 47.266 169.672 47.6586C169.997 48.0512 170.398 48.3744 170.85 48.609C171.302 48.8436 171.797 48.9848 172.305 49.0242C172.812 49.0637 173.323 49.0005 173.806 48.8386L200.044 39.443C201.026 39.0673 201.825 38.325 202.271 37.3722C202.718 36.4194 202.778 35.3304 202.439 34.3342L195.389 12.782C195.238 12.295 194.992 11.8432 194.664 11.4536C194.335 11.064 193.932 10.7447 193.478 10.5145C193.024 10.2844 192.528 10.1482 192.02 10.1142C191.512 10.0801 191.002 10.1488 190.521 10.3162ZM170.522 13.7614C169.984 12.1733 170.08 10.4383 170.791 8.91984C171.503 7.40142 172.773 6.21745 174.337 5.61595C175.109 5.35147 175.926 5.24542 176.74 5.30411C177.554 5.3628 178.348 5.58503 179.075 5.95756C179.801 6.33008 180.445 6.84525 180.968 7.47234C181.491 8.09943 181.883 8.82558 182.119 9.60748L183.201 12.9198L171.603 17.0737L170.522 13.7614ZM185.271 32.8873L187.07 38.3897C187.103 38.5001 187.092 38.6189 187.04 38.7216C186.988 38.8242 186.898 38.9028 186.79 38.941L184.268 39.8417C184.167 39.8695 184.06 39.8574 183.969 39.8079C183.877 39.7583 183.808 39.6752 183.776 39.5759L181.962 34.098C180.962 34.0434 180.002 33.6843 179.211 33.0685C178.42 32.4528 177.836 31.61 177.537 30.6528C177.11 29.3874 177.188 28.0054 177.755 26.7963C178.322 25.5872 179.335 24.6446 180.581 24.166C181.196 23.9556 181.847 23.8713 182.495 23.9182C183.143 23.9651 183.776 24.1421 184.354 24.4388C184.933 24.7355 185.446 25.1458 185.862 25.6451C186.279 26.1445 186.591 26.7227 186.78 27.3454C187.096 28.3177 187.123 29.3613 186.855 30.3482C186.588 31.3352 186.039 32.2227 185.276 32.902L185.271 32.8873Z" fill="#5AC8D2"/>
<path d="M187.876 11.1629C187.876 11.2318 183.181 12.9987 177.34 15.1003C171.5 17.2018 166.736 18.89 166.711 18.8408C166.686 18.7916 171.406 17.0099 177.252 14.9034C183.097 12.7969 187.851 11.0989 187.876 11.1629Z" fill="#242427"/>
<path d="M193.452 12.0684C193.474 12.1111 193.492 12.1555 193.507 12.2012C193.546 12.2997 193.59 12.4276 193.649 12.5851C193.777 12.9444 193.954 13.4415 194.175 14.0617L196.063 19.5642C196.85 21.8971 197.789 24.6631 198.831 27.7342C199.323 29.2747 199.903 30.8792 200.443 32.5674C200.733 33.4373 200.858 34.3536 200.812 35.2694C200.771 35.7457 200.635 36.209 200.414 36.6327C200.178 37.055 199.862 37.4277 199.485 37.7303C198.725 38.2853 197.882 38.7156 196.987 39.005L194.455 39.9155L189.662 41.6332L181.545 44.5272L176.063 46.4565L174.589 46.9487L174.195 47.0766C174.153 47.0953 174.108 47.107 174.062 47.1111C174.062 47.1111 174.102 47.1111 174.185 47.052L174.569 46.8994L176.044 46.3433L181.496 44.3352L189.598 41.3822L194.382 39.6497L196.914 38.7343C197.783 38.4567 198.602 38.0395 199.337 37.4989C199.688 37.2182 199.982 36.8723 200.203 36.4801C200.411 36.0883 200.536 35.6577 200.571 35.2152C200.617 34.3329 200.497 33.4498 200.217 32.6117C199.686 30.9383 199.126 29.319 198.62 27.7785C197.597 24.7024 196.653 21.9266 195.906 19.5937C195.158 17.2608 194.529 15.3856 194.097 14.0666C193.89 13.4218 193.733 12.9198 193.605 12.5556L193.487 12.1619C193.472 12.132 193.461 12.1007 193.452 12.0684Z" fill="#242427"/>
<path d="M179.609 5.28182C179.609 5.28182 179.348 5.15386 178.866 4.95699C178.18 4.69283 177.453 4.54641 176.718 4.52388C175.628 4.48646 174.543 4.69154 173.542 5.12433C172.324 5.66324 171.283 6.53493 170.538 7.63933C169.788 8.74058 169.386 10.042 169.383 11.3749C169.393 12.4674 169.559 13.5529 169.874 14.5987C170.13 15.4944 170.396 16.2081 170.573 16.7052C170.677 16.9576 170.762 17.2176 170.828 17.4828C170.689 17.2467 170.572 16.9979 170.479 16.7396C170.278 16.2474 169.988 15.5486 169.702 14.6479C169.352 13.5911 169.162 12.488 169.137 11.3749C169.124 9.99163 169.536 8.63773 170.317 7.4966C171.088 6.35186 172.172 5.45322 173.439 4.90777C174.471 4.47261 175.59 4.28065 176.708 4.3467C177.459 4.38503 178.198 4.56015 178.886 4.86348C179.07 4.9485 179.248 5.04722 179.417 5.15878C179.487 5.18954 179.552 5.23105 179.609 5.28182Z" fill="#242427"/>
<path d="M179.835 24.5404C179.913 24.4927 179.996 24.4516 180.081 24.4173C180.327 24.3061 180.582 24.2156 180.843 24.1466C181.257 24.0242 181.685 23.9515 182.116 23.9301C182.703 23.8985 183.29 23.9872 183.842 24.1909C185.1 24.6339 186.256 25.9184 186.826 27.6361C187.099 28.5579 187.099 29.5394 186.826 30.4612C186.523 31.4617 185.979 32.3725 185.243 33.114L185.272 32.9811C185.926 34.7775 186.639 36.7266 187.377 38.7592L187.421 38.8823L187.298 38.9266L186.172 39.3006L183.714 40.1225L183.591 40.1619L183.552 40.0389C182.878 38.0013 182.141 36.1015 181.585 34.2362L181.693 34.3198C180.732 34.2399 179.816 33.8788 179.058 33.2813C178.373 32.7528 177.811 32.081 177.411 31.3126C177.051 30.6313 176.871 29.8686 176.89 29.0979C176.913 28.3101 177.109 27.5372 177.465 26.8343C177.821 26.1315 178.328 25.5162 178.95 25.0325C179.206 24.8246 179.493 24.6585 179.8 24.5404C179.523 24.7053 179.254 24.8844 178.994 25.0768C178.311 25.6551 177.788 26.399 177.475 27.2375C177.206 27.8697 177.08 28.5538 177.107 29.2405C177.133 29.9272 177.311 30.5995 177.627 31.2093C178.02 31.9484 178.569 32.5933 179.235 33.0992C179.958 33.6671 180.832 34.0094 181.747 34.0836H181.831L181.855 34.1574C182.396 35.9883 183.139 37.9028 183.822 39.9503L183.66 39.8715L186.118 39.0496L187.239 38.6706L187.16 38.838C186.428 36.8053 185.72 34.8514 185.071 33.0549V32.9811L185.13 32.9221C185.844 32.2113 186.377 31.3384 186.683 30.3775C186.944 29.4958 186.944 28.5573 186.683 27.6755C186.147 26.0218 185.041 24.7668 183.842 24.3238C183.311 24.1188 182.744 24.0234 182.175 24.0433C181.75 24.053 181.328 24.1108 180.916 24.2155C180.184 24.3976 179.84 24.565 179.835 24.5404Z" fill="#242427"/>
<path d="M164.636 166.65L115.527 166.423C112.691 166.408 109.977 165.266 107.981 163.249C105.985 161.231 104.871 158.504 104.883 155.664L105.404 32.4194C105.41 31.0128 105.692 29.6211 106.236 28.3239C106.779 27.0267 107.573 25.8495 108.571 24.8594C109.569 23.8694 110.752 23.086 112.053 22.554C113.353 22.022 114.746 21.7518 116.151 21.7589L165.255 21.9853C168.091 21.9997 170.806 23.1402 172.802 25.1566C174.799 27.1729 175.915 29.9002 175.904 32.7393L175.383 155.979C175.377 157.386 175.095 158.779 174.551 160.076C174.008 161.374 173.215 162.552 172.217 163.543C171.219 164.534 170.036 165.318 168.735 165.851C167.434 166.384 166.041 166.656 164.636 166.65Z" fill="#455A64"/>
<path d="M165.182 26.2231H155.664C155.353 26.2289 155.047 26.2959 154.762 26.4202C154.477 26.5445 154.22 26.7238 154.004 26.9477C153.789 27.1717 153.62 27.4359 153.506 27.7254C153.393 28.0149 153.337 28.3239 153.343 28.6348V30.3623C153.349 30.673 153.294 30.9817 153.18 31.2709C153.067 31.5601 152.897 31.824 152.682 32.0476C152.466 32.2712 152.209 32.45 151.924 32.5738C151.639 32.6976 151.333 32.7639 151.023 32.769L132.469 32.6854C131.841 32.6686 131.246 32.4032 130.813 31.9473C130.381 31.4914 130.147 30.8824 130.163 30.254V28.5265C130.179 27.8989 129.945 27.2907 129.514 26.8349C129.083 26.3792 128.489 26.1132 127.862 26.0952H124.514L116.181 26.0558C114.199 26.044 112.293 26.8189 110.88 28.2109C109.468 29.6029 108.664 31.4985 108.644 33.4827L108.152 153.78C108.148 154.764 108.337 155.74 108.709 156.651C109.081 157.562 109.629 158.391 110.321 159.09C111.013 159.789 111.836 160.345 112.743 160.726C113.65 161.107 114.622 161.305 115.606 161.31L164.611 161.536C165.595 161.541 166.571 161.351 167.481 160.979C168.392 160.606 169.221 160.057 169.92 159.364C170.618 158.67 171.174 157.846 171.555 156.938C171.936 156.029 172.134 155.055 172.138 154.07L172.63 33.7731C172.642 31.7833 171.864 29.8703 170.467 28.4545C169.07 27.0387 167.169 26.2361 165.182 26.2231Z" fill="white"/>
<path d="M159.446 145.558L122.376 145.4C121.991 145.4 121.681 144.986 121.686 144.483L121.726 134.923C121.726 134.43 122.041 134.006 122.426 134.006L159.496 134.173C159.709 134.21 159.9 134.326 160.029 134.498C160.157 134.67 160.214 134.884 160.186 135.095L160.151 144.646C160.151 145.154 159.831 145.563 159.446 145.558Z" fill="#5AC8D2"/>
<path d="M135.361 136.403V137.546H131.782V136.403H135.361ZM132.256 130.437V137.546H130.791V130.437H132.256ZM135.889 134.958V134.855C135.889 134.468 135.944 134.112 136.055 133.786C136.165 133.457 136.326 133.173 136.538 132.932C136.75 132.691 137.01 132.504 137.319 132.37C137.629 132.233 137.983 132.165 138.384 132.165C138.784 132.165 139.141 132.233 139.453 132.37C139.766 132.504 140.028 132.691 140.239 132.932C140.454 133.173 140.617 133.457 140.728 133.786C140.838 134.112 140.894 134.468 140.894 134.855V134.958C140.894 135.342 140.838 135.699 140.728 136.027C140.617 136.353 140.454 136.638 140.239 136.882C140.028 137.123 139.767 137.31 139.458 137.443C139.149 137.577 138.794 137.644 138.394 137.644C137.993 137.644 137.637 137.577 137.324 137.443C137.015 137.31 136.753 137.123 136.538 136.882C136.326 136.638 136.165 136.353 136.055 136.027C135.944 135.699 135.889 135.342 135.889 134.958ZM137.295 134.855V134.958C137.295 135.179 137.314 135.386 137.354 135.578C137.393 135.77 137.454 135.939 137.539 136.086C137.627 136.229 137.741 136.341 137.881 136.423C138.021 136.504 138.192 136.545 138.394 136.545C138.589 136.545 138.757 136.504 138.896 136.423C139.036 136.341 139.149 136.229 139.233 136.086C139.318 135.939 139.38 135.77 139.419 135.578C139.461 135.386 139.482 135.179 139.482 134.958V134.855C139.482 134.641 139.461 134.439 139.419 134.25C139.38 134.058 139.316 133.889 139.229 133.742C139.144 133.592 139.032 133.475 138.892 133.391C138.752 133.306 138.582 133.264 138.384 133.264C138.185 133.264 138.016 133.306 137.876 133.391C137.739 133.475 137.627 133.592 137.539 133.742C137.454 133.889 137.393 134.058 137.354 134.25C137.314 134.439 137.295 134.641 137.295 134.855ZM145.103 132.263H146.377V137.37C146.377 137.852 146.27 138.26 146.055 138.596C145.843 138.934 145.547 139.19 145.166 139.362C144.785 139.538 144.342 139.626 143.838 139.626C143.617 139.626 143.382 139.597 143.135 139.538C142.891 139.479 142.656 139.388 142.432 139.265C142.21 139.141 142.025 138.985 141.875 138.796L142.495 137.966C142.658 138.155 142.847 138.301 143.062 138.405C143.276 138.513 143.514 138.566 143.774 138.566C144.028 138.566 144.243 138.519 144.419 138.425C144.595 138.334 144.73 138.199 144.824 138.02C144.919 137.844 144.966 137.631 144.966 137.38V133.483L145.103 132.263ZM141.548 134.968V134.865C141.548 134.462 141.597 134.095 141.694 133.767C141.795 133.435 141.937 133.15 142.119 132.912C142.305 132.674 142.529 132.491 142.793 132.36C143.057 132.23 143.354 132.165 143.687 132.165C144.038 132.165 144.333 132.23 144.57 132.36C144.808 132.491 145.003 132.676 145.156 132.917C145.309 133.155 145.428 133.436 145.513 133.762C145.601 134.084 145.669 134.437 145.718 134.821V135.046C145.669 135.414 145.596 135.756 145.498 136.071C145.4 136.387 145.272 136.664 145.112 136.901C144.953 137.136 144.754 137.318 144.517 137.448C144.282 137.578 144.002 137.644 143.677 137.644C143.351 137.644 143.057 137.577 142.793 137.443C142.533 137.31 142.31 137.123 142.124 136.882C141.938 136.641 141.795 136.358 141.694 136.032C141.597 135.707 141.548 135.352 141.548 134.968ZM142.954 134.865V134.968C142.954 135.186 142.975 135.389 143.018 135.578C143.06 135.767 143.125 135.935 143.213 136.081C143.304 136.224 143.416 136.337 143.55 136.418C143.687 136.496 143.848 136.535 144.033 136.535C144.29 136.535 144.5 136.481 144.663 136.374C144.826 136.263 144.948 136.112 145.029 135.92C145.111 135.728 145.158 135.507 145.171 135.256V134.616C145.164 134.411 145.137 134.227 145.088 134.064C145.039 133.898 144.971 133.757 144.883 133.64C144.795 133.522 144.681 133.431 144.541 133.366C144.401 133.301 144.235 133.269 144.043 133.269C143.857 133.269 143.696 133.311 143.56 133.396C143.426 133.477 143.314 133.589 143.223 133.732C143.135 133.876 143.068 134.045 143.022 134.24C142.977 134.432 142.954 134.641 142.954 134.865ZM132.349 141.437V148.546H130.889V141.437H132.349ZM135.01 144.391V148.546H133.604V143.263H134.922L135.01 144.391ZM134.805 145.719H134.424C134.424 145.328 134.474 144.977 134.575 144.664C134.676 144.348 134.818 144.08 135 143.858C135.182 143.634 135.399 143.463 135.649 143.346C135.903 143.225 136.187 143.165 136.499 143.165C136.746 143.165 136.973 143.201 137.178 143.272C137.383 143.344 137.559 143.458 137.705 143.614C137.855 143.771 137.969 143.977 138.047 144.234C138.128 144.492 138.169 144.806 138.169 145.177V148.546H136.753V145.172C136.753 144.938 136.72 144.755 136.655 144.625C136.59 144.495 136.494 144.404 136.367 144.352C136.243 144.296 136.09 144.269 135.908 144.269C135.719 144.269 135.555 144.306 135.415 144.381C135.278 144.456 135.164 144.56 135.073 144.693C134.985 144.824 134.919 144.977 134.873 145.152C134.827 145.328 134.805 145.517 134.805 145.719Z" fill="#F1F1F1"/>
<path d="M129.414 61.5858L116.77 61.5283L116.759 63.8514L129.404 63.9088L129.414 61.5858Z" fill="#5AC8D2"/>
<path opacity="0.1" d="M129.414 61.5858L116.77 61.5283L116.759 63.8514L129.404 63.9088L129.414 61.5858Z" fill="#242427"/>
<path d="M166.483 75.8499C166.582 75.8398 166.68 75.8167 166.773 75.781C166.909 75.7277 167.027 75.6371 167.114 75.5196C167.201 75.4021 167.253 75.2624 167.264 75.1165C167.264 74.334 167.264 73.1922 167.264 71.7255C167.264 70.9921 167.264 70.1702 167.264 69.2646C167.264 69.0431 167.264 68.8118 167.264 68.5805C167.296 68.356 167.248 68.1275 167.127 67.9357C167.059 67.8438 166.971 67.7689 166.87 67.7168C166.768 67.6647 166.656 67.6369 166.542 67.6355H165.775H158.671L117.551 67.4829C117.445 67.4812 117.341 67.5048 117.247 67.552C117.153 67.5991 117.072 67.6683 117.01 67.7536C116.891 67.9462 116.846 68.1751 116.882 68.3984C116.882 68.8906 116.882 69.3827 116.882 69.8749C116.882 70.8593 116.882 71.8436 116.882 72.8279C116.882 73.3201 116.882 73.8123 116.882 74.3045C116.862 74.5337 116.862 74.7643 116.882 74.9935C116.908 75.0918 116.956 75.1828 117.022 75.2596C117.089 75.3364 117.172 75.3969 117.265 75.4365C117.362 75.4751 117.466 75.4935 117.57 75.4906H120.073L130.992 75.5497L149.477 75.6629L161.94 75.7613L165.327 75.8007H166.207C166.409 75.8007 166.507 75.8007 166.507 75.8007H166.207H165.327H161.94H149.477L130.992 75.7416L120.073 75.6973H117.57C117.433 75.7029 117.295 75.6794 117.167 75.6284C117.038 75.5731 116.923 75.4889 116.831 75.3823C116.738 75.2757 116.672 75.1494 116.636 75.0132C116.608 74.884 116.598 74.7514 116.607 74.6195V74.2552C116.607 73.7631 116.607 73.2709 116.607 72.7787C116.607 71.7944 116.607 70.81 116.607 69.8257C116.607 69.3335 116.607 68.8413 116.607 68.3492C116.597 68.2181 116.597 68.0865 116.607 67.9554C116.625 67.8107 116.681 67.6732 116.769 67.5568C116.854 67.438 116.966 67.3415 117.096 67.2755C117.226 67.2095 117.37 67.176 117.516 67.1778L158.636 67.4042L165.74 67.4534H166.507C166.642 67.4535 166.776 67.4862 166.895 67.5488C167.015 67.6113 167.118 67.7019 167.196 67.8127C167.334 68.0267 167.39 68.2839 167.353 68.5362C167.353 68.7675 167.353 68.9988 167.353 69.2203C167.353 70.1161 167.353 70.938 167.353 71.6812C167.353 73.1577 167.319 74.2897 167.309 75.0772C167.297 75.2286 167.242 75.3734 167.15 75.4946C167.059 75.6158 166.935 75.7083 166.792 75.7613C166.699 75.819 166.592 75.8497 166.483 75.8499Z" fill="#F1F1F1"/>
<path d="M143.699 69.9521H120.572V72.1226H143.699V69.9521Z" fill="#5AC8D2"/>
<path opacity="0.2" d="M143.699 69.9521H120.572V72.1226H143.699V69.9521Z" fill="white"/>
<path d="M129.33 82.7772L116.686 82.7197L116.675 85.0428L129.32 85.1002L129.33 82.7772Z" fill="#5AC8D2"/>
<path opacity="0.1" d="M129.33 82.7772L116.686 82.7197L116.675 85.0428L129.32 85.1002L129.33 82.7772Z" fill="#242427"/>
<path d="M166.166 97.0418C166.265 97.0296 166.363 97.0115 166.461 96.9876C166.598 96.9439 166.724 96.8712 166.831 96.7744C166.938 96.6776 167.023 96.559 167.08 96.4266C167.157 96.2279 167.188 96.0139 167.169 95.8015C167.169 95.5653 167.169 95.3093 167.169 95.0239C167.169 94.4529 167.169 93.8033 167.169 93.0552V89.9299C167.192 89.7036 167.142 89.4758 167.026 89.2802C166.905 89.0796 166.714 88.9307 166.49 88.8619C166.245 88.8181 165.996 88.8049 165.748 88.8225H158.673L117.696 88.6699C117.475 88.6704 117.262 88.7511 117.097 88.8968C116.932 89.0426 116.825 89.2435 116.796 89.4623C116.796 89.9299 116.796 90.4467 116.796 90.9388C116.796 91.9232 116.796 92.9075 116.796 93.8919C116.796 94.384 116.796 94.8762 116.796 95.3684C116.778 95.5984 116.788 95.8298 116.825 96.0574C116.887 96.257 117.013 96.4303 117.184 96.5496C117.366 96.665 117.579 96.7201 117.794 96.7071H118.477H119.898L130.778 96.7612L149.199 96.8744L161.618 96.9729L164.996 97.0122H161.618H149.199L130.768 96.9926L119.888 96.9532H117.75C117.484 96.969 117.22 96.8982 116.998 96.7514C116.774 96.5963 116.611 96.3685 116.535 96.1066C116.491 95.8566 116.478 95.602 116.496 95.3487C116.496 94.8565 116.496 94.3644 116.496 93.8722C116.496 92.8878 116.496 91.9035 116.496 90.9191C116.496 90.427 116.496 89.9348 116.496 89.4426C116.532 89.1612 116.669 88.9025 116.882 88.715C117.094 88.5274 117.368 88.4239 117.651 88.4238L158.629 88.6502L165.704 88.7044C165.967 88.6882 166.231 88.7064 166.49 88.7585C166.746 88.8421 166.961 89.0174 167.095 89.2507C167.222 89.4675 167.277 89.7191 167.252 89.9693C167.252 90.2006 167.252 90.427 167.252 90.6534C167.252 91.5442 167.252 92.3612 167.252 93.1142C167.252 93.8673 167.252 94.5022 167.252 95.0829C167.252 95.3635 167.252 95.6243 167.252 95.8655C167.27 96.0856 167.235 96.3067 167.149 96.5102C167.085 96.646 166.993 96.7665 166.878 96.8633C166.764 96.9601 166.63 97.0311 166.485 97.0713C166.378 97.0802 166.27 97.0702 166.166 97.0418Z" fill="#F1F1F1"/>
<path d="M129.234 104.89L116.59 104.833L116.579 107.156L129.224 107.213L129.234 104.89Z" fill="#5AC8D2"/>
<path opacity="0.1" d="M129.234 104.89L116.59 104.833L116.579 107.156L129.224 107.213L129.234 104.89Z" fill="#242427"/>
<path d="M166.067 119.145C166.166 119.133 166.265 119.115 166.362 119.091C166.498 119.047 166.624 118.975 166.731 118.879C166.838 118.783 166.923 118.666 166.981 118.535C167.058 118.336 167.088 118.122 167.07 117.909C167.07 117.668 167.07 117.417 167.07 117.127C167.07 116.561 167.07 115.906 167.07 115.158V112.033C167.093 111.807 167.043 111.579 166.927 111.383C166.803 111.186 166.613 111.04 166.391 110.97C166.147 110.924 165.897 110.909 165.649 110.926H158.574L117.597 110.773C117.376 110.773 117.164 110.854 116.998 111C116.833 111.146 116.726 111.347 116.697 111.565C116.697 112.058 116.697 112.55 116.697 113.042C116.697 114.026 116.697 115.011 116.697 115.995C116.697 116.487 116.697 116.979 116.697 117.471C116.679 117.7 116.689 117.93 116.726 118.156C116.785 118.356 116.912 118.53 117.085 118.648C117.266 118.766 117.48 118.821 117.695 118.805H119.834L130.713 118.864L149.135 118.977L161.554 119.076L164.931 119.115H161.554H149.135L130.713 119.061L119.834 119.017H117.695C117.429 119.035 117.164 118.964 116.943 118.815C116.719 118.66 116.556 118.432 116.481 118.17C116.437 117.92 116.423 117.666 116.441 117.412C116.441 116.92 116.441 116.428 116.441 115.936C116.441 114.952 116.441 113.967 116.441 112.983C116.441 112.491 116.441 111.998 116.441 111.482C116.476 111.201 116.612 110.942 116.824 110.754C117.036 110.567 117.309 110.463 117.592 110.463L158.569 110.689L165.644 110.743C165.907 110.727 166.172 110.745 166.431 110.798C166.686 110.881 166.901 111.056 167.035 111.29C167.162 111.507 167.217 111.758 167.193 112.008C167.193 112.24 167.193 112.471 167.193 112.692C167.193 113.583 167.193 114.4 167.193 115.153C167.193 115.906 167.193 116.541 167.193 117.122C167.193 117.403 167.193 117.663 167.193 117.905C167.211 118.125 167.176 118.346 167.089 118.549C167.025 118.685 166.933 118.806 166.819 118.902C166.704 118.999 166.57 119.07 166.426 119.11C166.31 119.15 166.187 119.162 166.067 119.145Z" fill="#F1F1F1"/>
<path d="M143.204 91.7594L120.078 91.6543L120.068 93.8248L143.194 93.9298L143.204 91.7594Z" fill="#5AC8D2"/>
<path opacity="0.2" d="M143.204 91.7594L120.078 91.6543L120.068 93.8248L143.194 93.9298L143.204 91.7594Z" fill="white"/>
<path d="M122.169 115.129C122.155 115.327 122.083 115.516 121.962 115.674C121.841 115.831 121.676 115.949 121.489 116.014C121.301 116.078 121.099 116.086 120.907 116.037C120.715 115.987 120.541 115.882 120.408 115.735C120.275 115.588 120.188 115.405 120.158 115.209C120.128 115.013 120.156 114.812 120.239 114.631C120.322 114.451 120.456 114.299 120.624 114.194C120.792 114.089 120.988 114.036 121.186 114.041C121.46 114.057 121.717 114.179 121.901 114.383C122.085 114.587 122.181 114.855 122.169 115.129Z" fill="#5AC8D2"/>
<path d="M125.302 115.144C125.312 115.283 125.293 115.422 125.247 115.553C125.2 115.684 125.127 115.804 125.033 115.906C124.938 116.008 124.823 116.089 124.696 116.144C124.568 116.2 124.431 116.229 124.292 116.229C124.153 116.229 124.016 116.2 123.888 116.144C123.761 116.089 123.646 116.008 123.551 115.906C123.457 115.804 123.384 115.684 123.337 115.553C123.291 115.422 123.272 115.283 123.282 115.144C123.272 115.005 123.291 114.866 123.337 114.735C123.384 114.604 123.457 114.484 123.551 114.382C123.646 114.28 123.761 114.199 123.888 114.144C124.016 114.088 124.153 114.06 124.292 114.06C124.431 114.06 124.568 114.088 124.696 114.144C124.823 114.199 124.938 114.28 125.033 114.382C125.127 114.484 125.2 114.604 125.247 114.735C125.293 114.866 125.312 115.005 125.302 115.144Z" fill="#5AC8D2"/>
<path d="M128.435 115.158C128.42 115.356 128.348 115.546 128.227 115.703C128.106 115.86 127.942 115.978 127.754 116.043C127.567 116.108 127.364 116.116 127.172 116.066C126.98 116.017 126.807 115.912 126.674 115.765C126.541 115.617 126.454 115.434 126.424 115.238C126.394 115.042 126.422 114.841 126.505 114.661C126.587 114.48 126.721 114.328 126.89 114.223C127.058 114.119 127.253 114.065 127.452 114.071C127.725 114.087 127.981 114.21 128.165 114.414C128.349 114.617 128.446 114.884 128.435 115.158Z" fill="#5AC8D2"/>
<path d="M131.57 115.174C131.555 115.372 131.483 115.561 131.362 115.719C131.241 115.876 131.076 115.994 130.889 116.059C130.701 116.123 130.499 116.131 130.307 116.082C130.115 116.032 129.942 115.927 129.809 115.78C129.676 115.633 129.589 115.45 129.559 115.254C129.529 115.057 129.557 114.857 129.639 114.676C129.722 114.496 129.856 114.344 130.024 114.239C130.193 114.134 130.388 114.081 130.586 114.086C130.86 114.103 131.116 114.226 131.3 114.429C131.484 114.633 131.58 114.9 131.57 115.174Z" fill="#5AC8D2"/>
<path d="M134.701 115.183C134.687 115.381 134.616 115.571 134.495 115.729C134.375 115.887 134.211 116.006 134.023 116.071C133.836 116.136 133.633 116.145 133.441 116.096C133.248 116.047 133.075 115.943 132.941 115.795C132.808 115.648 132.72 115.465 132.69 115.269C132.659 115.073 132.687 114.872 132.77 114.691C132.853 114.51 132.987 114.358 133.155 114.253C133.324 114.148 133.519 114.095 133.718 114.1C133.99 114.116 134.246 114.239 134.429 114.441C134.613 114.643 134.71 114.91 134.701 115.183Z" fill="#5AC8D2"/>
<path d="M137.838 115.199C137.824 115.396 137.753 115.585 137.634 115.743C137.515 115.9 137.352 116.019 137.166 116.086C136.98 116.152 136.779 116.162 136.587 116.115C136.395 116.068 136.221 115.966 136.086 115.821C135.952 115.677 135.862 115.496 135.829 115.301C135.796 115.106 135.82 114.906 135.899 114.724C135.978 114.543 136.108 114.389 136.274 114.281C136.439 114.173 136.632 114.116 136.83 114.116C137.107 114.126 137.368 114.246 137.557 114.449C137.746 114.652 137.847 114.922 137.838 115.199Z" fill="#5AC8D2"/>
<path d="M140.968 115.213C140.978 115.352 140.959 115.491 140.913 115.623C140.866 115.754 140.793 115.874 140.699 115.975C140.604 116.077 140.489 116.158 140.362 116.214C140.234 116.269 140.097 116.298 139.958 116.298C139.819 116.298 139.682 116.269 139.554 116.214C139.427 116.158 139.312 116.077 139.217 115.975C139.123 115.874 139.05 115.754 139.003 115.623C138.957 115.491 138.938 115.352 138.948 115.213C138.938 115.075 138.957 114.935 139.003 114.804C139.05 114.673 139.123 114.553 139.217 114.451C139.312 114.35 139.427 114.268 139.554 114.213C139.682 114.158 139.819 114.129 139.958 114.129C140.097 114.129 140.234 114.158 140.362 114.213C140.489 114.268 140.604 114.35 140.699 114.451C140.793 114.553 140.866 114.673 140.913 114.804C140.959 114.935 140.978 115.075 140.968 115.213Z" fill="#5AC8D2"/>
<path d="M144.099 115.227C144.086 115.425 144.015 115.614 143.896 115.771C143.777 115.929 143.614 116.048 143.428 116.114C143.242 116.18 143.04 116.19 142.848 116.143C142.657 116.096 142.483 115.994 142.348 115.85C142.213 115.705 142.124 115.524 142.091 115.329C142.057 115.134 142.082 114.934 142.161 114.753C142.24 114.572 142.37 114.417 142.535 114.309C142.701 114.201 142.894 114.144 143.092 114.145C143.368 114.155 143.63 114.275 143.819 114.477C144.008 114.68 144.109 114.95 144.099 115.227Z" fill="#5AC8D2"/>
<path d="M147.234 115.241C147.221 115.44 147.149 115.63 147.029 115.787C146.908 115.945 146.744 116.064 146.556 116.13C146.369 116.195 146.166 116.204 145.974 116.155C145.782 116.106 145.608 116.001 145.474 115.854C145.341 115.707 145.253 115.524 145.223 115.328C145.192 115.131 145.22 114.93 145.303 114.75C145.386 114.569 145.52 114.417 145.688 114.311C145.857 114.206 146.052 114.153 146.251 114.159C146.523 114.175 146.779 114.298 146.962 114.5C147.146 114.702 147.244 114.968 147.234 115.241Z" fill="#5AC8D2"/>
<g opacity="0.2">
<path d="M122.169 115.13C122.155 115.328 122.083 115.517 121.962 115.675C121.841 115.832 121.676 115.95 121.489 116.015C121.301 116.079 121.099 116.087 120.907 116.038C120.715 115.988 120.541 115.883 120.408 115.736C120.275 115.589 120.188 115.406 120.158 115.21C120.128 115.014 120.156 114.813 120.239 114.632C120.322 114.452 120.456 114.3 120.624 114.195C120.792 114.09 120.988 114.037 121.186 114.042C121.46 114.058 121.717 114.18 121.901 114.384C122.085 114.588 122.181 114.856 122.169 115.13Z" fill="white"/>
<path d="M125.3 115.144C125.31 115.283 125.291 115.422 125.245 115.553C125.198 115.684 125.126 115.804 125.031 115.906C124.936 116.008 124.821 116.089 124.694 116.144C124.566 116.2 124.429 116.229 124.29 116.229C124.151 116.229 124.014 116.2 123.886 116.144C123.759 116.089 123.644 116.008 123.549 115.906C123.455 115.804 123.382 115.684 123.335 115.553C123.289 115.422 123.27 115.283 123.28 115.144C123.27 115.005 123.289 114.866 123.335 114.735C123.382 114.604 123.455 114.484 123.549 114.382C123.644 114.28 123.759 114.199 123.886 114.144C124.014 114.088 124.151 114.06 124.29 114.06C124.429 114.06 124.566 114.088 124.694 114.144C124.821 114.199 124.936 114.28 125.031 114.382C125.126 114.484 125.198 114.604 125.245 114.735C125.291 114.866 125.31 115.005 125.3 115.144Z" fill="white"/>
<path d="M128.437 115.159C128.422 115.357 128.35 115.547 128.229 115.704C128.108 115.861 127.944 115.979 127.756 116.044C127.569 116.108 127.366 116.117 127.174 116.067C126.982 116.018 126.809 115.913 126.676 115.765C126.543 115.618 126.456 115.435 126.426 115.239C126.396 115.043 126.424 114.842 126.507 114.662C126.589 114.481 126.723 114.329 126.892 114.224C127.06 114.12 127.255 114.066 127.454 114.072C127.727 114.088 127.983 114.211 128.167 114.415C128.351 114.618 128.448 114.885 128.437 115.159Z" fill="white"/>
<path d="M131.568 115.174C131.553 115.372 131.481 115.561 131.36 115.719C131.239 115.876 131.074 115.994 130.887 116.059C130.699 116.123 130.497 116.131 130.305 116.082C130.113 116.032 129.94 115.927 129.807 115.78C129.674 115.633 129.587 115.45 129.557 115.254C129.527 115.057 129.555 114.857 129.637 114.676C129.72 114.496 129.854 114.344 130.023 114.239C130.191 114.134 130.386 114.081 130.584 114.086C130.858 114.103 131.114 114.226 131.298 114.429C131.482 114.633 131.579 114.9 131.568 115.174Z" fill="white"/>
<path d="M134.703 115.184C134.689 115.382 134.618 115.572 134.497 115.73C134.377 115.888 134.213 116.007 134.025 116.072C133.838 116.137 133.635 116.146 133.443 116.097C133.25 116.048 133.077 115.944 132.943 115.796C132.81 115.649 132.722 115.466 132.692 115.27C132.661 115.074 132.689 114.873 132.772 114.692C132.855 114.511 132.989 114.359 133.157 114.254C133.326 114.149 133.521 114.096 133.72 114.101C133.992 114.117 134.247 114.24 134.431 114.442C134.615 114.644 134.712 114.911 134.703 115.184Z" fill="white"/>
<path d="M137.838 115.198C137.824 115.395 137.753 115.584 137.634 115.742C137.515 115.899 137.352 116.018 137.166 116.085C136.98 116.151 136.779 116.161 136.587 116.114C136.395 116.067 136.221 115.965 136.086 115.82C135.952 115.676 135.862 115.495 135.829 115.3C135.796 115.105 135.82 114.905 135.899 114.723C135.978 114.542 136.108 114.388 136.274 114.28C136.439 114.172 136.632 114.115 136.83 114.115C137.107 114.126 137.368 114.245 137.557 114.448C137.746 114.651 137.847 114.921 137.838 115.198Z" fill="white"/>
<path d="M140.968 115.214C140.978 115.353 140.959 115.492 140.913 115.623C140.866 115.755 140.793 115.875 140.699 115.976C140.604 116.078 140.489 116.159 140.362 116.215C140.234 116.27 140.097 116.299 139.958 116.299C139.819 116.299 139.682 116.27 139.554 116.215C139.427 116.159 139.312 116.078 139.217 115.976C139.123 115.875 139.05 115.755 139.003 115.623C138.957 115.492 138.938 115.353 138.948 115.214C138.938 115.076 138.957 114.936 139.003 114.805C139.05 114.674 139.123 114.554 139.217 114.452C139.312 114.351 139.427 114.269 139.554 114.214C139.682 114.159 139.819 114.13 139.958 114.13C140.097 114.13 140.234 114.159 140.362 114.214C140.489 114.269 140.604 114.351 140.699 114.452C140.793 114.554 140.866 114.674 140.913 114.805C140.959 114.936 140.978 115.076 140.968 115.214Z" fill="white"/>
<path d="M144.101 115.228C144.088 115.426 144.017 115.615 143.898 115.772C143.778 115.93 143.616 116.049 143.43 116.115C143.244 116.181 143.042 116.191 142.85 116.144C142.659 116.097 142.485 115.995 142.35 115.851C142.215 115.706 142.126 115.525 142.093 115.33C142.059 115.135 142.084 114.935 142.163 114.754C142.242 114.573 142.372 114.418 142.537 114.31C142.703 114.202 142.896 114.145 143.093 114.146C143.37 114.156 143.632 114.275 143.821 114.478C144.01 114.681 144.111 114.951 144.101 115.228Z" fill="white"/>
<path d="M147.232 115.243C147.219 115.442 147.147 115.631 147.027 115.789C146.906 115.947 146.742 116.066 146.554 116.132C146.367 116.197 146.164 116.206 145.972 116.157C145.78 116.108 145.606 116.003 145.472 115.856C145.339 115.709 145.251 115.526 145.221 115.33C145.191 115.133 145.218 114.932 145.301 114.751C145.384 114.571 145.518 114.419 145.686 114.313C145.855 114.208 146.05 114.155 146.249 114.161C146.521 114.177 146.777 114.299 146.96 114.502C147.144 114.704 147.242 114.97 147.232 115.243Z" fill="white"/>
</g>
<path d="M142.781 44.1913C143.122 44.0408 143.412 43.793 143.614 43.4788C143.816 43.1647 143.921 42.798 143.916 42.4244C143.929 42.1816 143.892 41.9387 143.808 41.7106C143.724 41.4824 143.594 41.2738 143.427 41.0974C143.26 40.921 143.059 40.7806 142.836 40.6846C142.612 40.5886 142.372 40.5391 142.129 40.5391C141.886 40.5391 141.646 40.5886 141.423 40.6846C141.199 40.7806 140.998 40.921 140.831 41.0974C140.664 41.2738 140.534 41.4824 140.45 41.7106C140.366 41.9387 140.329 42.1816 140.342 42.4244C140.335 42.8017 140.439 43.1728 140.642 43.4908C140.845 43.8087 141.137 44.0594 141.483 44.211C138.729 44.6245 138.852 47.6169 138.852 47.6169L145.362 47.6464C145.362 47.6464 145.514 44.5998 142.781 44.1913Z" fill="#5AC8D2"/>
<path opacity="0.1" d="M142.781 44.1913C143.122 44.0408 143.412 43.793 143.614 43.4788C143.816 43.1647 143.921 42.798 143.916 42.4244C143.929 42.1816 143.892 41.9387 143.808 41.7106C143.724 41.4824 143.594 41.2738 143.427 41.0974C143.26 40.921 143.059 40.7806 142.836 40.6846C142.612 40.5886 142.372 40.5391 142.129 40.5391C141.886 40.5391 141.646 40.5886 141.423 40.6846C141.199 40.7806 140.998 40.921 140.831 41.0974C140.664 41.2738 140.534 41.4824 140.45 41.7106C140.366 41.9387 140.329 42.1816 140.342 42.4244C140.335 42.8017 140.439 43.1728 140.642 43.4908C140.845 43.8087 141.137 44.0594 141.483 44.211C138.729 44.6245 138.852 47.6169 138.852 47.6169L145.362 47.6464C145.362 47.6464 145.514 44.5998 142.781 44.1913Z" fill="#242427"/>
<path d="M153.36 49.5771L130.16 49.4717L130.148 52.2475L153.347 52.3529L153.36 49.5771Z" fill="#5AC8D2"/>
<path opacity="0.2" d="M153.36 49.5771L130.16 49.4717L130.148 52.2475L153.347 52.3529L153.36 49.5771Z" fill="white"/>
<path d="M68.0692 63.9629H67.8381L67.1695 64.0121C66.8076 64.0339 66.4478 64.0816 66.0928 64.1549C65.8629 64.1872 65.6348 64.2316 65.4094 64.2878L64.6474 64.4994C63.3504 64.8978 62.1267 65.5045 61.0241 66.2958C59.5673 67.3544 58.3509 68.7097 57.4548 70.2726C56.9282 71.1735 56.509 72.1333 56.2061 73.1321C55.8877 74.2177 55.7045 75.3385 55.6604 76.469C55.6311 77.0629 55.6409 77.6581 55.6899 78.2507C55.6899 78.5509 55.7734 78.8512 55.8128 79.1563C55.8459 79.4639 55.9034 79.7684 55.9848 80.0668C56.4269 82.0418 57.3239 83.886 58.6043 85.4523C59.8847 87.0187 61.513 88.2638 63.3593 89.0884C64.6956 89.6656 66.1279 89.9878 67.5825 90.0382C69.0848 90.121 70.5885 89.9052 72.0071 89.4033L72.4398 89.2409H72.4988L72.5479 89.2705L78.7474 92.4204L78.5655 92.5779C77.9018 90.5206 77.2627 88.5273 76.6432 86.6127V86.5389L76.6973 86.4848C78.2012 84.9683 79.3176 83.1112 79.9519 81.0709C80.5264 79.2055 80.6941 77.2384 80.4436 75.3026C80.2207 73.5822 79.6682 71.9211 78.8163 70.4104C78.0819 69.1127 77.1346 67.948 76.0139 66.9652C75.0894 66.1873 74.0661 65.5352 72.9707 65.026C72.1419 64.6682 71.2787 64.396 70.3946 64.2139L69.4113 64.0515L68.6985 63.9974L68.2658 63.9679H68.1183C68.1673 63.9624 68.2168 63.9624 68.2658 63.9679H68.7034L69.4162 63.9974L70.3995 64.1401C71.2946 64.3089 72.1696 64.5712 73.0101 64.9227C74.1243 65.4258 75.166 66.0764 76.1074 66.8569C77.2486 67.8354 78.216 69.0002 78.9687 70.3021C79.8448 71.829 80.4143 73.5127 80.6451 75.2583C80.9164 77.224 80.7605 79.2252 80.1879 81.125C79.5495 83.2078 78.4158 85.1044 76.8841 86.6521L76.9136 86.5241C77.5331 88.4387 78.1771 90.432 78.8457 92.4844L78.9392 92.7846L78.6589 92.6418L72.4594 89.4969H72.5676L72.1251 89.6593C70.6792 90.1686 69.1476 90.3893 67.6169 90.3089C66.131 90.2523 64.6687 89.9185 63.3053 89.3246C60.7044 88.2095 58.5405 86.2714 57.1451 83.8073C56.503 82.6693 56.0341 81.4418 55.7538 80.1653C55.677 79.8591 55.6196 79.5484 55.5817 79.2351C55.5424 78.925 55.4785 78.6198 55.4637 78.3147C55.3307 76.5635 55.5156 74.8026 56.0094 73.1173C56.3199 72.1048 56.7507 71.1331 57.2926 70.2234C58.21 68.6463 59.4518 67.2823 60.9356 66.222C62.0563 65.4286 63.3006 64.8266 64.6179 64.4403L65.3898 64.2435C65.617 64.1907 65.8467 64.1496 66.0781 64.1204C66.4368 64.0539 66.8 64.0144 67.1646 64.0023L67.8381 63.9777C67.9147 63.9674 67.9919 63.9624 68.0692 63.9629Z" fill="#5AC8D2"/>
<path d="M70.8705 75.44H69.961L67.9945 72.674V70.8578C67.9945 70.8578 66.5884 70.7693 66.7556 73.1464C66.9227 75.5236 66.7556 74.9183 66.7556 74.9183C66.7556 74.9183 63.7714 74.9183 63.5256 75.189C63.2797 75.4597 63.265 78.3438 63.2306 79.9532C63.2117 80.3412 63.3229 80.7243 63.5465 81.0418C63.7701 81.3592 64.0932 81.5928 64.4646 81.7053C64.5687 81.7342 64.6761 81.7491 64.7841 81.7496C65.5314 81.7496 69.3317 81.1443 69.3317 81.1443H70.9L70.8705 75.44Z" fill="#5AC8D2"/>
<path d="M73.4714 74.9531L72.911 81.1742H71.3574V75.0811L73.4714 74.9531Z" fill="#5AC8D2"/>
<path d="M92.003 201.605V197.397L84.4663 197.343L84.4023 203.707L84.8694 203.741C86.949 203.874 95.4493 204.071 96.8456 203.638C98.3991 203.155 92.003 201.605 92.003 201.605Z" fill="#5AC8D2"/>
<path d="M97.0214 203.244C97.0214 203.313 94.1994 203.372 90.7236 203.372C87.2477 203.372 84.4258 203.313 84.4258 203.244C84.4258 203.175 87.2477 203.116 90.7236 203.116C94.1994 203.116 97.0214 203.175 97.0214 203.244Z" fill="#242427"/>
<path d="M92.136 202.467C92.072 202.432 92.136 202.211 92.2885 201.975C92.4411 201.738 92.6478 201.64 92.6971 201.689C92.7463 201.738 92.6429 201.925 92.4953 202.127C92.3476 202.329 92.2 202.501 92.136 202.467Z" fill="#242427"/>
<path d="M92.6161 202.742C92.5472 202.742 92.5817 202.466 92.7293 202.205C92.877 201.944 93.0739 201.787 93.128 201.826C93.1821 201.866 93.0935 202.087 92.9557 202.318C92.8179 202.55 92.6801 202.766 92.6161 202.742Z" fill="#242427"/>
<path d="M86.6975 203.225C86.668 203.225 86.5549 203.136 86.3927 202.949C86.1946 202.709 85.974 202.488 85.7339 202.29C85.4977 202.101 85.2164 201.977 84.9178 201.93C84.6867 201.901 84.5392 201.93 84.5245 201.901C84.5097 201.871 84.6523 201.768 84.9227 201.748C85.2795 201.741 85.6277 201.859 85.906 202.083C86.1667 202.296 86.3866 202.554 86.5549 202.846C86.668 203.062 86.727 203.205 86.6975 203.225Z" fill="#242427"/>
<path d="M92.1597 201.674C92.1941 201.733 92.0663 201.88 91.85 201.959C91.6337 202.038 91.4419 202.008 91.4321 201.959C91.4223 201.91 91.5747 201.807 91.7615 201.738C91.9483 201.669 92.1204 201.615 92.1597 201.674Z" fill="#242427"/>
<path d="M92.0414 201.265C92.0414 201.339 91.8448 201.398 91.5891 201.403C91.3335 201.408 91.1319 201.349 91.1368 201.28C91.1417 201.211 91.3433 201.147 91.5891 201.142C91.8349 201.137 92.0316 201.196 92.0414 201.265Z" fill="#242427"/>
<path d="M110.562 201.605V197.397L103.025 197.343L102.961 203.643L103.428 203.677C105.508 203.81 114.013 204.071 115.404 203.638C116.958 203.155 110.562 201.605 110.562 201.605Z" fill="#5AC8D2"/>
<path d="M115.579 203.254C115.579 203.323 112.762 203.382 109.281 203.382C105.8 203.382 102.988 203.323 102.988 203.254C102.988 203.185 105.805 203.126 109.281 203.126C112.757 203.126 115.579 203.185 115.579 203.254Z" fill="#242427"/>
<path d="M110.692 202.467C110.633 202.432 110.692 202.211 110.845 201.975C110.998 201.738 111.204 201.64 111.254 201.689C111.303 201.738 111.199 201.925 111.052 202.127C110.904 202.329 110.756 202.501 110.692 202.467Z" fill="#242427"/>
<path d="M111.174 202.742C111.11 202.742 111.14 202.466 111.292 202.205C111.445 201.944 111.637 201.787 111.691 201.826C111.745 201.866 111.652 202.087 111.514 202.318C111.376 202.55 111.243 202.766 111.174 202.742Z" fill="#242427"/>
<path d="M105.256 203.225C105.227 203.225 105.118 203.136 104.951 202.949C104.753 202.709 104.533 202.488 104.292 202.29C104.056 202.101 103.775 201.977 103.476 201.93C103.25 201.901 103.098 201.93 103.083 201.901C103.068 201.871 103.211 201.768 103.481 201.748C103.838 201.741 104.186 201.859 104.465 202.083C104.727 202.294 104.947 202.553 105.114 202.846C105.227 203.062 105.286 203.205 105.256 203.225Z" fill="#242427"/>
<path d="M110.718 201.674C110.753 201.733 110.625 201.88 110.409 201.959C110.192 202.038 110.001 202.008 109.991 201.959C109.981 201.91 110.133 201.807 110.32 201.738C110.507 201.669 110.679 201.615 110.718 201.674Z" fill="#242427"/>
<path d="M110.609 201.265C110.609 201.339 110.412 201.398 110.156 201.403C109.901 201.408 109.704 201.349 109.709 201.28C109.714 201.211 109.911 201.147 110.156 201.142C110.402 201.137 110.609 201.196 110.609 201.265Z" fill="#242427"/>
<path d="M138.329 76.6423C138.132 76.4405 137.645 76.5389 137.645 76.5389C137.694 76.2556 137.694 75.9659 137.645 75.6826C137.557 75.4069 136.937 75.4611 136.937 75.4611C136.909 75.229 136.909 74.9943 136.937 74.7622C136.942 74.7108 136.931 74.659 136.906 74.6141C136.88 74.5692 136.841 74.5332 136.795 74.5112C136.502 74.3916 136.187 74.3346 135.87 74.3439C135.492 74.0732 137.026 71.9224 137.596 71.2333C138.166 70.5443 138.063 70.0078 137.557 70.0078C137.208 70.0078 135.418 72.0749 134.867 72.7689C134.317 73.4629 132.857 75.3922 132.807 73.8517C132.758 72.3112 132.139 71.1497 131.75 70.9528C131.362 70.7559 130.949 71.2186 131.161 71.6467C131.346 72.1332 131.462 72.6436 131.505 73.1626C131.558 73.5761 131.54 73.9957 131.451 74.4029C131.288 75.1606 131.066 75.9044 130.787 76.6275H130.748C130.748 76.6275 120.02 86.9287 119.243 87.6621C118.55 88.3216 104.607 86.8795 101.81 86.5842C100.86 86.4449 99.8996 86.3791 98.9389 86.3873C97.7246 86.4415 97.5083 86.6137 96.2989 86.6285C93.2446 86.6624 90.1974 86.9306 87.184 87.4307C85.8196 87.663 84.545 88.2659 83.4995 89.1737C82.4539 90.0816 81.6775 91.2595 81.2549 92.5789C78.4379 101.389 72.0565 122.242 70.9307 133.956C70.0799 135.5 69.3119 137.089 68.6298 138.715C67.8383 140.871 68.03 140.945 68.2955 140.994C69.0133 141.127 69.8294 137.258 70.1342 138.193C70.439 139.129 68.5856 142.805 69.3378 142.913C70.321 143.051 71.1027 138.976 71.1961 138.651C71.2896 138.326 71.7763 138.43 71.6878 138.735C71.5452 139.168 70.1637 143.76 71.1273 143.908C71.6583 143.986 71.7173 143.017 71.7173 143.017C71.7173 143.017 72.7005 138.622 73.1479 138.71C73.5953 138.799 73.1184 141.393 72.8923 142.259C72.6661 143.125 72.9808 143.563 73.4429 143.351C73.7575 143.204 74.5097 140.571 74.7162 139.714C74.9227 138.858 75.4389 136.486 76.1321 137.859C76.8253 139.232 77.8774 140.029 78.3101 140.049C78.4076 140.038 78.4994 139.997 78.5739 139.934C78.6484 139.87 78.702 139.785 78.7279 139.69C78.7539 139.595 78.7508 139.495 78.7193 139.402C78.6878 139.309 78.6291 139.227 78.551 139.168C78.1788 138.804 77.8595 138.39 77.6021 137.938C77.3728 137.585 77.2064 137.195 77.1105 136.786C76.9124 135.969 76.7971 135.135 76.7663 134.295L76.6877 133.803C77.7889 128.345 80.96 112.325 85.5371 102.093L87.4151 105.961L88.2312 108.825L83.2264 121.194L104.573 120.913L101.387 108.638L105.256 95.842C109.44 95.9355 120.182 96.093 121.972 95.2809C124.224 94.2965 135.87 79.5707 135.87 79.5707C136.63 78.9802 137.357 78.3493 138.048 77.6808C138.048 77.6808 138.756 77.0853 138.329 76.6423Z" fill="#FFBE9D"/>
<path d="M82.2855 112.054C82.905 109.937 86.0859 99.4738 86.0859 99.4738C86.0859 99.4738 87.6493 108.003 87.2363 109.032C86.8564 109.912 86.4076 110.762 85.8941 111.571C82.2855 117.069 82.7575 119.82 82.7575 119.82L104.561 119.156C104.611 116.104 102.806 109.007 102.433 107.875C102.059 106.743 103.303 103.037 103.303 103.037C103.303 103.037 105.761 100.532 105.672 99.2425C105.626 98.0842 105.483 96.9318 105.245 95.7973L118.519 96.2894L118.101 87.2827L99.0355 85.373C98.3717 87.2482 92.3689 86.3279 92.3689 86.3279C85.8892 86.5444 85.4861 87.7355 82.7919 89.8321C80.0978 91.9288 75.6387 109.923 75.6387 109.923L82.2855 112.054Z" fill="#5AC8D2"/>
<path d="M95.179 109.923C94.8011 109.991 94.4162 110.011 94.0334 109.982C93.3206 109.982 92.3422 109.933 91.2656 109.825C90.1889 109.716 89.2155 109.564 88.5223 109.426C88.14 109.377 87.7652 109.281 87.4062 109.141C87.7906 109.141 88.1741 109.177 88.5518 109.249C89.2499 109.337 90.2184 109.461 91.2901 109.569C92.3619 109.677 93.3353 109.751 94.0384 109.8C94.4216 109.805 94.8035 109.846 95.179 109.923Z" fill="#242427"/>
<path d="M96.6719 108.067C96.2939 108.253 95.8942 108.39 95.4821 108.476C93.5207 108.992 91.497 109.232 89.4694 109.19C89.0499 109.203 88.6303 109.164 88.2207 109.071C88.6348 109.019 89.0522 108.998 89.4694 109.007C90.2413 108.983 91.3032 108.929 92.4733 108.791C93.6434 108.653 94.6857 108.456 95.4231 108.299C95.8327 108.189 96.2502 108.112 96.6719 108.067Z" fill="#242427"/>
<path d="M104.008 99.7891C103.999 100.164 103.947 100.537 103.856 100.901C103.728 101.585 103.532 102.521 103.281 103.544C103.03 104.568 102.789 105.513 102.573 106.153C102.486 106.519 102.357 106.874 102.189 107.211C102.217 106.837 102.286 106.467 102.396 106.109C102.583 105.341 102.794 104.455 103.03 103.485C103.266 102.516 103.492 101.63 103.679 100.862C103.746 100.492 103.856 100.132 104.008 99.7891Z" fill="#242427"/>
<path d="M82.517 110.8C81.3796 110.624 80.2572 110.362 79.1592 110.017C78.0372 109.754 76.9362 109.409 75.8652 108.983C77.002 109.162 78.1243 109.424 79.2231 109.766C80.3453 110.028 81.4464 110.373 82.517 110.8Z" fill="#242427"/>
<path d="M105.483 95.6889C105.297 95.7209 105.108 95.7209 104.922 95.6889C104.409 95.6362 103.904 95.5154 103.423 95.3296C102.619 95.0271 101.886 94.5595 101.273 93.9568C100.66 93.3542 100.18 92.6298 99.8633 91.8303C99.5132 90.9508 99.3638 90.0041 99.4258 89.0593C99.4477 88.2801 99.6805 87.5214 100.099 86.8643C100.394 86.4215 100.834 86.0959 101.343 85.9439C101.479 85.9063 101.62 85.8881 101.761 85.8898C101.859 85.8898 101.909 85.8898 101.909 85.8898C101.909 85.8898 101.702 85.8898 101.373 86.0226C100.905 86.1954 100.509 86.5193 100.247 86.943C99.5782 87.9963 99.3914 89.9207 100.104 91.7171C100.436 92.5641 100.955 93.3247 101.623 93.9417C102.171 94.4465 102.801 94.8528 103.487 95.1426C104.13 95.3972 104.799 95.5804 105.483 95.6889Z" fill="#242427"/>
<path d="M116.942 96.1118C116.819 94.6025 116.78 93.0876 116.824 91.5739C116.786 90.0616 116.832 88.5482 116.962 87.041C117.085 88.5486 117.125 90.0619 117.08 91.5739C117.122 93.0879 117.076 94.6031 116.942 96.1118Z" fill="#242427"/>
<path d="M98.9103 85.9254C98.9644 84.8278 99.0775 83.5876 99.0775 83.5876C99.0775 83.5876 101.791 83.2873 101.954 80.482C102.116 77.6766 101.954 71.2045 101.954 71.2045L97.0372 68.6846L91.5801 72.9812L92.4208 87.0082L97.4256 87.3281C97.8081 87.3387 98.1793 87.197 98.4576 86.934C98.7359 86.6711 98.8987 86.3083 98.9103 85.9254Z" fill="#FFBE9D"/>
<path d="M99.3955 78.2615C99.3955 78.2615 99.3955 78.3157 99.3513 78.3796C99.3147 78.426 99.2674 78.4628 99.2134 78.4869C99.1595 78.5109 99.1005 78.5214 99.0416 78.5174C98.7269 78.5174 98.4221 78.1532 98.3139 77.73C98.2625 77.5248 98.2625 77.3101 98.3139 77.1049C98.324 77.0154 98.3563 76.9297 98.4078 76.8558C98.4593 76.7819 98.5284 76.722 98.6089 76.6816C98.675 76.6543 98.7493 76.6543 98.8154 76.6816C98.8644 76.706 98.9041 76.7458 98.9285 76.7948C98.9629 76.8785 98.9285 76.9326 98.9285 76.9277C98.9285 76.9228 98.9285 76.8785 98.8793 76.8293C98.8536 76.794 98.8158 76.7695 98.7732 76.7604C98.7306 76.7514 98.6861 76.7583 98.6483 76.7801C98.5879 76.8166 98.5378 76.8678 98.5026 76.9289C98.4674 76.99 98.4481 77.059 98.4467 77.1295C98.4053 77.3126 98.4053 77.5026 98.4467 77.6857C98.545 78.0696 98.8105 78.3796 99.0465 78.4092C99.0926 78.4154 99.1396 78.4121 99.1844 78.3994C99.2293 78.3867 99.271 78.3649 99.307 78.3353C99.366 78.296 99.3857 78.2566 99.3955 78.2615Z" fill="url(#paint0_linear_15197_1638)"/>
<path d="M103.639 69.6878C103.261 68.3983 101.889 67.7585 100.64 67.4041C98.7375 66.8627 96.6825 66.6265 94.8241 67.3106C92.9658 67.9947 90.7338 69.1956 90.7338 71.248C89.6374 71.1594 89.0081 72.1191 88.5755 73.3102C88.2989 74.0358 88.1332 74.7991 88.0839 75.5742C87.9462 78.2614 87.194 81.9724 85.4536 83.9411C84.4704 85.0387 83.1085 85.7966 82.5481 87.1649C82.0565 88.351 82.3121 89.7586 81.8549 90.9595C81.4468 92.0177 80.5471 92.7707 79.8884 93.6911C79.2172 94.7352 78.8222 95.9329 78.7405 97.1718C78.6588 98.4107 78.8931 99.6501 79.4213 100.773C79.9533 101.868 80.7024 102.843 81.6228 103.638C82.5433 104.433 83.6158 105.033 84.7752 105.4C87.0716 106.099 89.5205 106.123 91.8301 105.469C93.5635 105.054 95.1804 104.251 96.5596 103.121C97.9708 101.967 98.94 100.361 99.3029 98.5734C99.652 96.5654 99.0915 94.5228 98.6736 92.5246C97.3659 86.21 97.7395 85.8803 99.3914 80.0185C99.4307 79.9151 99.4504 79.8069 99.4799 79.7035C99.5094 79.6002 99.5242 79.5509 99.5438 79.4722C99.5907 79.2405 99.6154 79.0048 99.6176 78.7684C99.3763 78.8582 99.1144 78.8772 98.8627 78.8232C98.611 78.7691 98.38 78.6442 98.1967 78.4632C98.0131 78.2703 97.885 78.0311 97.8262 77.7711C97.7673 77.5112 97.7798 77.2401 97.8624 76.9867C97.9784 76.7096 98.1513 76.4599 98.3698 76.2539C98.5883 76.0479 98.8476 75.8901 99.1308 75.7907C99.6766 75.5643 100.262 75.4462 100.797 75.1952C101.933 74.6538 102.72 73.5317 103.256 72.3554C103.696 71.5401 103.832 70.5943 103.639 69.6878Z" fill="#242427"/>
<path d="M99.5928 78.3945C99.6967 78.5482 99.7824 78.7133 99.8484 78.8867C99.9959 79.1968 100.193 79.6348 100.409 80.1417L100.448 80.2353H100.345L99.8533 80.2796C99.5141 80.2796 99.229 80.3435 98.8947 80.3386C98.8655 80.3321 98.8386 80.3182 98.8162 80.2985C98.7939 80.2787 98.7769 80.2535 98.7668 80.2254C98.7522 80.1806 98.7522 80.1324 98.7668 80.0876C98.7782 80.0213 98.793 79.9556 98.8111 79.8907L98.8996 79.5413C98.944 79.3082 99.0133 79.0805 99.1061 78.8621C99.0969 79.0997 99.0623 79.3357 99.0028 79.5659L98.934 79.9153C98.9094 80.0335 98.8652 80.2156 98.934 80.2008C99.1798 80.2008 99.5289 80.1467 99.8533 80.127L100.345 80.0827L100.281 80.191C100.07 79.6988 99.8927 79.2361 99.7894 78.9162C99.6989 78.7528 99.6326 78.5771 99.5928 78.3945Z" fill="#5AC8D2"/>
<path d="M82.7594 119.821L104.563 119.156L114.052 156.237L112.306 198.77H100.778L102.189 157.142L93.7572 131.328L95.0551 200.419L83.4034 200.591L82.1793 135.649C82.1252 133.843 81.5352 129.772 81.7565 127.981L82.7594 119.821Z" fill="#242427"/>
<path d="M96.6578 131.855C96.3009 131.877 95.9426 131.856 95.591 131.791C94.9322 131.712 94.0325 131.574 93.0443 131.377C92.0562 131.18 91.1712 130.954 90.5321 130.772C90.1904 130.697 89.8599 130.577 89.5488 130.417C89.5488 130.344 91.1515 130.727 93.1181 131.126C95.0846 131.525 96.6677 131.781 96.6578 131.855Z" fill="#455A64"/>
<path d="M112.188 196.437C112.188 196.505 109.577 196.565 106.357 196.565C103.137 196.565 100.521 196.505 100.521 196.437C100.521 196.368 103.132 196.309 106.357 196.309C109.582 196.309 112.188 196.363 112.188 196.437Z" fill="#455A64"/>
<path d="M94.9531 198.622C94.9531 198.696 92.4163 198.75 89.2896 198.75C86.1628 198.75 83.6309 198.696 83.6309 198.622C83.6309 198.548 86.1677 198.494 89.2896 198.494C92.4114 198.494 94.9531 198.553 94.9531 198.622Z" fill="#455A64"/>
<path d="M93.448 198.445C93.3792 198.445 93.0744 183.35 92.7647 164.732C92.4549 146.113 92.273 131.008 92.337 131.008C92.4009 131.008 92.7155 146.098 93.0203 164.727C93.3251 183.355 93.5218 198.445 93.448 198.445Z" fill="#455A64"/>
<path d="M110.64 196.437C110.635 196.37 110.635 196.302 110.64 196.235V195.644C110.64 195.113 110.68 194.35 110.709 193.38C110.778 191.412 110.876 188.552 110.999 185.048C111.265 178 111.639 168.285 112.047 157.56C112.047 157.457 112.047 157.358 112.047 157.27V157.304C109.465 146.969 107.13 137.588 105.434 130.801L103.468 122.773C103.241 121.833 103.069 121.1 102.946 120.588C102.887 120.347 102.848 120.16 102.814 120.017C102.795 119.953 102.783 119.887 102.779 119.82C102.805 119.882 102.825 119.947 102.838 120.012C102.878 120.15 102.927 120.337 102.996 120.573C103.128 121.066 103.32 121.814 103.566 122.749C104.058 124.649 104.751 127.385 105.616 130.756C107.327 137.539 109.687 146.895 112.302 157.245V157.28C112.302 157.368 112.302 157.472 112.302 157.57C111.865 168.294 111.466 178.005 111.176 185.053C111.024 188.562 110.896 191.402 110.808 193.38C110.758 194.365 110.719 195.113 110.695 195.644C110.695 195.895 110.665 196.092 110.66 196.235C110.661 196.303 110.654 196.371 110.64 196.437Z" fill="#455A64"/>
<path d="M106.878 156.403C106.05 156.676 105.197 156.865 104.332 156.969C103.27 157.151 102.365 157.279 101.957 157.299V157.201C102.09 157.24 102.159 157.265 102.159 157.284C102.159 157.304 102.075 157.284 101.938 157.284H101.643L101.938 157.196C102.321 157.083 103.226 156.895 104.288 156.704C105.139 156.519 106.007 156.418 106.878 156.403Z" fill="#455A64"/>
<path d="M106.678 157.817C105.911 157.852 105.142 157.817 104.382 157.713C103.614 157.698 102.849 157.614 102.096 157.462C103.632 157.337 105.179 157.456 106.678 157.817Z" fill="#455A64"/>
<path opacity="0.2" d="M82.666 120.603C82.9242 120.935 83.2495 121.209 83.6205 121.406C83.9916 121.604 84.4001 121.721 84.8194 121.75C85.6975 121.854 86.5858 121.838 87.4594 121.701C93.0886 121.076 99.0521 120.5 104.563 119.156C97.4297 119.555 89.893 119.422 82.7594 119.821L82.6857 120.431" fill="#242427"/>
<g opacity="0.2">
<path d="M90.0137 130.668L94.0352 146.29L93.755 131.327L90.0137 130.668Z" fill="#242427"/>
</g>
<defs>
<linearGradient id="paint0_linear_15197_1638" x1="98.5503" y1="77.8907" x2="98.7288" y2="77.9919" gradientUnits="userSpaceOnUse">
<stop stop-color="#E9B44C"/>
<stop offset="1" stop-color="#9C2916" stop-opacity="0"/>
</linearGradient>
</defs>
</svg>
