<svg width="15" height="15" viewBox="0 0 15 15" fill="none" xmlns="http://www.w3.org/2000/svg">
<path d="M14.5331 1.82516L13.1738 0.465786C12.5527 -0.155277 11.5423 -0.155248 10.9212 0.465786C10.3365 1.05058 1.40519 9.98257 0.808326 10.5795C0.744752 10.643 0.702154 10.7275 0.686978 10.8102L0.007351 14.4805C-0.0189868 14.6228 0.0263646 14.7689 0.128698 14.8713C0.231149 14.9737 0.37734 15.019 0.519459 14.9926L4.18944 14.3129C4.27425 14.2971 4.35763 14.2541 4.42015 14.1916L14.5331 4.07788C15.1556 3.45538 15.1556 2.44775 14.5331 1.82516ZM0.987915 14.012L1.39904 11.7917L3.208 13.6008L0.987915 14.012ZM4.10943 13.2593L1.74052 10.8902L10.3892 2.24085L12.7581 4.60994L4.10943 13.2593ZM13.9116 3.45641L13.3796 3.98847L11.0107 1.61938L11.5427 1.08732C11.821 0.80894 12.2739 0.808911 12.5523 1.08732L13.9116 2.44669C14.1906 2.72574 14.1906 3.17732 13.9116 3.45641Z" fill="#5AC8D2"/>
</svg>
