<svg width="30" height="30" viewBox="0 0 30 30" fill="none" xmlns="http://www.w3.org/2000/svg">
<path d="M18.75 28.5H11.25C4.5 28.5 1.5 25.625 1.5 18.75V11.25C1.5 4.5 4.375 1.5 11.25 1.5H18.75C25.5 1.5 28.5 4.375 28.5 11.25V18.75C28.5 25.5 25.5 28.5 18.75 28.5ZM11.25 3.5C5.5 3.5 3.5 5.5 3.5 11.25V18.75C3.5 24.5 5.5 26.625 11.375 26.625H18.875C24.625 26.625 26.75 24.625 26.75 18.75V11.25C26.75 5.5 24.75 3.375 18.875 3.375H11.25V3.5Z" fill="white"/>
<path d="M26.875 9.875H3.125C2.625 9.875 2.125 9.5 2.125 8.875C2.125 8.25 2.5 7.875 3.125 7.875H26.875C27.375 7.875 27.875 8.25 27.875 8.875C27.875 9.5 27.375 9.875 26.875 9.875Z" fill="white"/>
<path d="M10.625 9.625C10.125 9.625 9.75 9.25 9.75 8.75V2.625C9.75 2.125 10.125 1.625 10.75 1.625C11.375 1.625 11.75 2 11.75 2.625V8.75C11.625 9.25 11.125 9.625 10.625 9.625Z" fill="white"/>
<path d="M19.375 9.125C18.875 9.125 18.375 8.75 18.375 8.125V2.625C18.375 2.125 18.75 1.625 19.375 1.625C20 1.625 20.375 2 20.375 2.625V8.125C20.25 8.625 19.875 9.125 19.375 9.125Z" fill="white"/>
<path d="M13.875 22.6249C13.375 22.6249 13 22.4999 12.625 22.2499C11.75 21.8749 11.25 20.8749 11.25 19.6249V16.6249C11.25 15.3749 11.75 14.3749 12.625 13.8749C13.5 13.3749 14.625 13.4999 15.75 14.1249L18.375 15.6249C19.5 16.2499 20.125 17.2499 20.125 18.2499C20.125 19.2499 19.5 20.1249 18.375 20.7499L15.75 22.2499C15.125 22.4999 14.5 22.6249 13.875 22.6249ZM13.875 15.3749C13.75 15.3749 13.625 15.3749 13.5 15.4999C13.25 15.6249 13.125 16.1249 13.125 16.6249V19.6249C13.125 20.2499 13.25 20.6249 13.5 20.7499C13.75 20.8749 14.25 20.8749 14.75 20.4999L17.375 18.9999C17.875 18.7499 18.125 18.3749 18.125 17.9999C18.125 17.6249 17.875 17.3749 17.375 16.9999L14.75 15.4999C14.375 15.3749 14.125 15.3749 13.875 15.3749Z" fill="white"/>
</svg>
